<mxfile host="app.diagrams.net" modified="2023-10-29T14:34:59.339Z" agent="Mozilla/5.0 (Windows NT 10.0; Win64; x64) AppleWebKit/537.36 (KHTML, like Gecko) Chrome/118.0.0.0 Safari/537.36" etag="jDEn7w8CJJ81Fxdie93q" version="22.0.8" type="device">
  <diagram name="Halaman-1" id="U11Jcgt5f_Vy8Th4l4Qx">
    <mxGraphModel dx="1336" dy="789" grid="1" gridSize="10" guides="1" tooltips="1" connect="1" arrows="1" fold="1" page="1" pageScale="1" pageWidth="827" pageHeight="1169" math="0" shadow="0">
      <root>
        <mxCell id="0" />
        <mxCell id="1" parent="0" />
        <mxCell id="319OezpS-MD_yMWwI5ib-2" value="Date" style="swimlane;fontStyle=1;childLayout=stackLayout;horizontal=1;startSize=26;horizontalStack=0;resizeParent=1;resizeParentMax=0;resizeLast=0;collapsible=1;marginBottom=0;align=center;fontSize=14;" vertex="1" parent="1">
          <mxGeometry x="70" y="80" width="170" height="140" as="geometry" />
        </mxCell>
        <mxCell id="319OezpS-MD_yMWwI5ib-3" value="Year" style="text;strokeColor=none;fillColor=none;spacingLeft=4;spacingRight=4;overflow=hidden;rotatable=0;points=[[0,0.5],[1,0.5]];portConstraint=eastwest;fontSize=12;whiteSpace=wrap;html=1;" vertex="1" parent="319OezpS-MD_yMWwI5ib-2">
          <mxGeometry y="26" width="170" height="30" as="geometry" />
        </mxCell>
        <mxCell id="319OezpS-MD_yMWwI5ib-4" value="Quarter" style="text;strokeColor=none;fillColor=none;spacingLeft=4;spacingRight=4;overflow=hidden;rotatable=0;points=[[0,0.5],[1,0.5]];portConstraint=eastwest;fontSize=12;whiteSpace=wrap;html=1;" vertex="1" parent="319OezpS-MD_yMWwI5ib-2">
          <mxGeometry y="56" width="170" height="30" as="geometry" />
        </mxCell>
        <mxCell id="319OezpS-MD_yMWwI5ib-5" value="Month&lt;br&gt;&lt;br&gt;Day" style="text;strokeColor=none;fillColor=none;spacingLeft=4;spacingRight=4;overflow=hidden;rotatable=0;points=[[0,0.5],[1,0.5]];portConstraint=eastwest;fontSize=12;whiteSpace=wrap;html=1;" vertex="1" parent="319OezpS-MD_yMWwI5ib-2">
          <mxGeometry y="86" width="170" height="54" as="geometry" />
        </mxCell>
        <mxCell id="319OezpS-MD_yMWwI5ib-6" value="Product" style="swimlane;fontStyle=1;childLayout=stackLayout;horizontal=1;startSize=26;horizontalStack=0;resizeParent=1;resizeParentMax=0;resizeLast=0;collapsible=1;marginBottom=0;align=center;fontSize=14;" vertex="1" parent="1">
          <mxGeometry x="540" y="80" width="170" height="170" as="geometry" />
        </mxCell>
        <mxCell id="319OezpS-MD_yMWwI5ib-7" value="ProductGroup" style="text;strokeColor=none;fillColor=none;spacingLeft=4;spacingRight=4;overflow=hidden;rotatable=0;points=[[0,0.5],[1,0.5]];portConstraint=eastwest;fontSize=12;whiteSpace=wrap;html=1;" vertex="1" parent="319OezpS-MD_yMWwI5ib-6">
          <mxGeometry y="26" width="170" height="30" as="geometry" />
        </mxCell>
        <mxCell id="319OezpS-MD_yMWwI5ib-8" value="ProductName" style="text;strokeColor=none;fillColor=none;spacingLeft=4;spacingRight=4;overflow=hidden;rotatable=0;points=[[0,0.5],[1,0.5]];portConstraint=eastwest;fontSize=12;whiteSpace=wrap;html=1;" vertex="1" parent="319OezpS-MD_yMWwI5ib-6">
          <mxGeometry y="56" width="170" height="30" as="geometry" />
        </mxCell>
        <mxCell id="319OezpS-MD_yMWwI5ib-9" value="ProductColor&lt;br&gt;&lt;br&gt;ProductPackageType&lt;br&gt;&lt;br&gt;ProductSupplier" style="text;strokeColor=none;fillColor=none;spacingLeft=4;spacingRight=4;overflow=hidden;rotatable=0;points=[[0,0.5],[1,0.5]];portConstraint=eastwest;fontSize=12;whiteSpace=wrap;html=1;" vertex="1" parent="319OezpS-MD_yMWwI5ib-6">
          <mxGeometry y="86" width="170" height="84" as="geometry" />
        </mxCell>
        <mxCell id="319OezpS-MD_yMWwI5ib-10" value="Customer" style="swimlane;fontStyle=1;childLayout=stackLayout;horizontal=1;startSize=26;horizontalStack=0;resizeParent=1;resizeParentMax=0;resizeLast=0;collapsible=1;marginBottom=0;align=center;fontSize=14;" vertex="1" parent="1">
          <mxGeometry x="70" y="400" width="170" height="260" as="geometry" />
        </mxCell>
        <mxCell id="319OezpS-MD_yMWwI5ib-11" value="CustomerName" style="text;strokeColor=none;fillColor=none;spacingLeft=4;spacingRight=4;overflow=hidden;rotatable=0;points=[[0,0.5],[1,0.5]];portConstraint=eastwest;fontSize=12;whiteSpace=wrap;html=1;" vertex="1" parent="319OezpS-MD_yMWwI5ib-10">
          <mxGeometry y="26" width="170" height="30" as="geometry" />
        </mxCell>
        <mxCell id="319OezpS-MD_yMWwI5ib-12" value="CustomerFaxNumber" style="text;strokeColor=none;fillColor=none;spacingLeft=4;spacingRight=4;overflow=hidden;rotatable=0;points=[[0,0.5],[1,0.5]];portConstraint=eastwest;fontSize=12;whiteSpace=wrap;html=1;" vertex="1" parent="319OezpS-MD_yMWwI5ib-10">
          <mxGeometry y="56" width="170" height="30" as="geometry" />
        </mxCell>
        <mxCell id="319OezpS-MD_yMWwI5ib-13" value="CustomerPhoneNumber&lt;br&gt;&lt;br&gt;CustomerCategory&lt;br&gt;&lt;br&gt;CustomerBuyingGroup&lt;br&gt;&lt;br&gt;CustomerCountry&lt;br&gt;&lt;br&gt;CustomerStateProvince&lt;br&gt;&lt;br&gt;CustomerCity" style="text;strokeColor=none;fillColor=none;spacingLeft=4;spacingRight=4;overflow=hidden;rotatable=0;points=[[0,0.5],[1,0.5]];portConstraint=eastwest;fontSize=12;whiteSpace=wrap;html=1;" vertex="1" parent="319OezpS-MD_yMWwI5ib-10">
          <mxGeometry y="86" width="170" height="174" as="geometry" />
        </mxCell>
        <mxCell id="319OezpS-MD_yMWwI5ib-14" value="SalesPerson" style="swimlane;fontStyle=1;childLayout=stackLayout;horizontal=1;startSize=26;horizontalStack=0;resizeParent=1;resizeParentMax=0;resizeLast=0;collapsible=1;marginBottom=0;align=center;fontSize=14;" vertex="1" parent="1">
          <mxGeometry x="540" y="400" width="170" height="140" as="geometry" />
        </mxCell>
        <mxCell id="319OezpS-MD_yMWwI5ib-15" value="SlaesPersonName" style="text;strokeColor=none;fillColor=none;spacingLeft=4;spacingRight=4;overflow=hidden;rotatable=0;points=[[0,0.5],[1,0.5]];portConstraint=eastwest;fontSize=12;whiteSpace=wrap;html=1;" vertex="1" parent="319OezpS-MD_yMWwI5ib-14">
          <mxGeometry y="26" width="170" height="30" as="geometry" />
        </mxCell>
        <mxCell id="319OezpS-MD_yMWwI5ib-16" value="SalesPersonEmail" style="text;strokeColor=none;fillColor=none;spacingLeft=4;spacingRight=4;overflow=hidden;rotatable=0;points=[[0,0.5],[1,0.5]];portConstraint=eastwest;fontSize=12;whiteSpace=wrap;html=1;" vertex="1" parent="319OezpS-MD_yMWwI5ib-14">
          <mxGeometry y="56" width="170" height="30" as="geometry" />
        </mxCell>
        <mxCell id="319OezpS-MD_yMWwI5ib-17" value="SalesPhoneNumber&lt;br&gt;&lt;br&gt;SalesPersonFaxNumber" style="text;strokeColor=none;fillColor=none;spacingLeft=4;spacingRight=4;overflow=hidden;rotatable=0;points=[[0,0.5],[1,0.5]];portConstraint=eastwest;fontSize=12;whiteSpace=wrap;html=1;" vertex="1" parent="319OezpS-MD_yMWwI5ib-14">
          <mxGeometry y="86" width="170" height="54" as="geometry" />
        </mxCell>
        <mxCell id="319OezpS-MD_yMWwI5ib-18" value="Facts" style="swimlane;fontStyle=1;childLayout=stackLayout;horizontal=1;startSize=26;horizontalStack=0;resizeParent=1;resizeParentMax=0;resizeLast=0;collapsible=1;marginBottom=0;align=center;fontSize=14;" vertex="1" parent="1">
          <mxGeometry x="310" y="240" width="170" height="260" as="geometry" />
        </mxCell>
        <mxCell id="319OezpS-MD_yMWwI5ib-19" value="DateID" style="text;strokeColor=none;fillColor=none;spacingLeft=4;spacingRight=4;overflow=hidden;rotatable=0;points=[[0,0.5],[1,0.5]];portConstraint=eastwest;fontSize=12;whiteSpace=wrap;html=1;" vertex="1" parent="319OezpS-MD_yMWwI5ib-18">
          <mxGeometry y="26" width="170" height="30" as="geometry" />
        </mxCell>
        <mxCell id="319OezpS-MD_yMWwI5ib-22" value="ProductID" style="text;strokeColor=none;fillColor=none;spacingLeft=4;spacingRight=4;overflow=hidden;rotatable=0;points=[[0,0.5],[1,0.5]];portConstraint=eastwest;fontSize=12;whiteSpace=wrap;html=1;" vertex="1" parent="319OezpS-MD_yMWwI5ib-18">
          <mxGeometry y="56" width="170" height="30" as="geometry" />
        </mxCell>
        <mxCell id="319OezpS-MD_yMWwI5ib-21" value="CustomerID&lt;br&gt;&lt;br&gt;SalesPersonID&lt;br&gt;&lt;br&gt;SalesQuantitiy&lt;br&gt;&lt;br&gt;SalesAmount&lt;br&gt;&lt;br&gt;CostAmount&lt;br&gt;&lt;br&gt;ProfitAmount" style="text;strokeColor=none;fillColor=none;spacingLeft=4;spacingRight=4;overflow=hidden;rotatable=0;points=[[0,0.5],[1,0.5]];portConstraint=eastwest;fontSize=12;whiteSpace=wrap;html=1;" vertex="1" parent="319OezpS-MD_yMWwI5ib-18">
          <mxGeometry y="86" width="170" height="174" as="geometry" />
        </mxCell>
        <mxCell id="319OezpS-MD_yMWwI5ib-23" value="" style="edgeStyle=entityRelationEdgeStyle;fontSize=12;html=1;endArrow=ERoneToMany;rounded=0;entryX=0;entryY=0.5;entryDx=0;entryDy=0;exitX=1;exitY=0.5;exitDx=0;exitDy=0;" edge="1" parent="1" source="319OezpS-MD_yMWwI5ib-4" target="319OezpS-MD_yMWwI5ib-19">
          <mxGeometry width="100" height="100" relative="1" as="geometry">
            <mxPoint x="360" y="100" as="sourcePoint" />
            <mxPoint x="400" y="320" as="targetPoint" />
            <Array as="points">
              <mxPoint x="240" y="140" />
              <mxPoint x="280" y="151" />
            </Array>
          </mxGeometry>
        </mxCell>
        <mxCell id="319OezpS-MD_yMWwI5ib-24" value="" style="edgeStyle=entityRelationEdgeStyle;fontSize=12;html=1;endArrow=ERoneToMany;rounded=0;exitX=1.025;exitY=0.349;exitDx=0;exitDy=0;exitPerimeter=0;" edge="1" parent="1" source="319OezpS-MD_yMWwI5ib-13">
          <mxGeometry width="100" height="100" relative="1" as="geometry">
            <mxPoint x="300" y="420" as="sourcePoint" />
            <mxPoint x="310" y="338" as="targetPoint" />
            <Array as="points">
              <mxPoint x="240" y="340" />
            </Array>
          </mxGeometry>
        </mxCell>
        <mxCell id="319OezpS-MD_yMWwI5ib-25" value="" style="edgeStyle=entityRelationEdgeStyle;fontSize=12;html=1;endArrow=ERoneToMany;rounded=0;entryX=1;entryY=0.5;entryDx=0;entryDy=0;exitX=0.013;exitY=0.96;exitDx=0;exitDy=0;exitPerimeter=0;" edge="1" parent="1" source="319OezpS-MD_yMWwI5ib-8" target="319OezpS-MD_yMWwI5ib-22">
          <mxGeometry width="100" height="100" relative="1" as="geometry">
            <mxPoint x="480" y="100" as="sourcePoint" />
            <mxPoint x="620" y="320" as="targetPoint" />
          </mxGeometry>
        </mxCell>
        <mxCell id="319OezpS-MD_yMWwI5ib-26" value="" style="edgeStyle=entityRelationEdgeStyle;fontSize=12;html=1;endArrow=ERoneToMany;rounded=0;exitX=-0.003;exitY=0.188;exitDx=0;exitDy=0;exitPerimeter=0;entryX=0.99;entryY=0.259;entryDx=0;entryDy=0;entryPerimeter=0;" edge="1" parent="1" source="319OezpS-MD_yMWwI5ib-16" target="319OezpS-MD_yMWwI5ib-21">
          <mxGeometry width="100" height="100" relative="1" as="geometry">
            <mxPoint x="480" y="370" as="sourcePoint" />
            <mxPoint x="620" y="320" as="targetPoint" />
          </mxGeometry>
        </mxCell>
      </root>
    </mxGraphModel>
  </diagram>
</mxfile>
